<svg width="105" height="80" viewBox="0 0 105 80" fill="none" xmlns="http://www.w3.org/2000/svg">
<g opacity="0.1">
<path d="M52.228 79.9998C51.9795 79.9998 51.7272 79.9714 51.4771 79.9123C50.0045 79.5641 48.9629 78.2487 48.9629 76.7354V9.96513C48.9629 8.87371 49.5082 7.85438 50.4163 7.24924C64.9147 -2.41641 88.504 -2.41641 103.002 7.24924C103.911 7.85362 104.457 8.87371 104.457 9.96513V76.7354C104.457 78.0554 103.662 79.2457 102.442 79.7511C101.22 80.2573 99.8163 79.9766 98.8844 79.0432C94.2633 74.4229 77.9046 71.9992 65.2322 74.0563C58.7942 75.1017 55.7761 76.9387 55.148 78.195C54.5858 79.3186 53.4437 79.9989 52.2289 79.9997L52.228 79.9998ZM74.8788 66.8299C82.8554 66.8299 91.6658 67.998 97.9281 70.7943V11.772C86.006 4.7916 67.4136 4.7916 55.4933 11.772V70.0148C57.8249 68.9756 60.7256 68.1725 64.1862 67.6104C67.2895 67.1072 70.9848 66.8288 74.8796 66.8288L74.8788 66.8299Z" fill="#245D51"/>
<path d="M52.2277 79.9999C51.0128 79.9999 49.8708 79.3188 49.3086 78.1952C48.6804 76.9389 45.6632 75.1012 39.2243 74.0566C26.5498 71.9981 10.1923 74.4224 5.57218 79.0434C4.64029 79.9761 3.23523 80.2576 2.01493 79.7514C0.795428 79.2459 0 78.0563 0 76.7356V9.96537C0 8.87395 0.54532 7.85463 1.45343 7.24948C15.9518 -2.41617 39.5411 -2.41617 54.0395 7.24948C54.9484 7.85463 55.4929 8.87395 55.4929 9.96537V76.7356C55.4929 78.2497 54.4513 79.565 52.9787 79.9126C52.7286 79.9716 52.4771 80 52.2286 80L52.2277 79.9999ZM6.52761 11.7727V70.7951C15.8489 66.6335 30.814 66.0774 40.2701 67.6121C43.7307 68.1735 46.6314 68.9773 48.963 70.0166V11.7737C37.0409 4.79255 18.4485 4.79255 6.5282 11.773L6.52761 11.7727Z" fill="#245D51"/>
</g>
</svg>
