<svg width="45" height="40" viewBox="0 0 45 40" fill="none" xmlns="http://www.w3.org/2000/svg">
<path d="M27.4444 0C29.6 0.0221976 31.3556 1.13208 32.3778 3.12986C32.6417 3.65705 33.0097 4.42703 33.3951 5.23927L33.8604 6.22143L34.0889 6.70366L34.3111 7.19201C34.4 7.34739 34.5556 7.45838 34.7556 7.45838C40.0889 7.45838 44.4444 11.8091 44.4444 17.1365V30.3219C44.4444 35.6493 40.0889 40 34.7556 40H9.68889C4.33333 40 0 35.6493 0 30.3219V17.1365C0 11.8091 4.33333 7.45838 9.68889 7.45838C9.86667 7.45838 10.0444 7.36959 10.1111 7.19201L10.2444 6.92564C10.8667 5.61598 11.6222 4.01776 12.0667 3.12986C13.0889 1.13208 14.8222 0.0221976 16.9778 0H27.4444ZM22.2222 14.2286C19.8889 14.2286 17.6889 15.1387 16.0222 16.8036C14.3778 18.4684 13.4667 20.6437 13.4889 22.9523C13.4889 25.283 14.4 27.4584 16.0444 29.1232C17.7111 30.7658 19.8889 31.6759 22.2222 31.6759C24.6222 31.6759 26.8 30.6992 28.3778 29.1232C29.9556 27.5472 30.9333 25.3718 30.9556 22.9523C30.9556 20.6437 30.0444 18.4462 28.4 16.7814C26.7556 15.1387 24.5556 14.2286 22.2222 14.2286ZM22.2222 17.5583C23.6667 17.5583 25.0222 18.1132 26.0444 19.1343C27.0667 20.1554 27.6222 21.5094 27.6222 22.9523C27.6 25.9267 25.2 28.3463 22.2222 28.3463C20.7778 28.3463 19.4222 27.7913 18.4 26.7703C17.3778 25.7492 16.8222 24.3951 16.8222 22.9523V22.9301C16.8 21.5316 17.3556 20.1776 18.3778 19.1565C19.4222 18.1132 20.7778 17.5583 22.2222 17.5583ZM34.6889 13.6959C33.5778 13.6959 32.6889 14.606 32.6889 15.7159C32.6889 16.8258 33.5778 17.7137 34.6889 17.7137C35.8 17.7137 36.7111 16.8258 36.7111 15.7159C36.7111 14.606 35.8 13.6959 34.6889 13.6959Z" fill="#075F33"/>
</svg>
