<svg width="51" height="50" viewBox="0 0 51 50" fill="none" xmlns="http://www.w3.org/2000/svg">
<path d="M25.0128 8.76855C16.0631 8.76855 8.78711 16.0447 8.78711 24.9942C8.78711 33.9437 16.0633 41.2129 25.0128 41.2129C33.9622 41.2129 41.2384 33.9367 41.2384 24.9872C41.2384 16.0371 33.9622 8.76855 25.0128 8.76855ZM25.0128 39.6991C16.9037 39.6991 10.3009 33.0967 10.3009 24.9872C10.3009 16.8782 16.9036 10.2834 25.0128 10.2834C33.1219 10.2834 39.7246 16.8857 39.7246 24.9952C39.7246 33.1042 33.1219 39.6991 25.0128 39.6991Z" fill="#245D51"/>
<path d="M32.7063 17.3017H21.8415C21.4248 16.787 20.7968 16.4462 20.0772 16.4462H17.98C16.7305 16.4462 15.7085 17.4682 15.7085 18.7177V32.7782C15.7085 34.0277 16.7305 35.0497 17.98 35.0497H20.0772C20.7889 35.0497 21.4248 34.7089 21.8415 34.1942H32.7063C33.5923 34.1942 34.3188 33.4672 34.3188 32.5816V18.9143C34.3188 18.0209 33.5923 17.3017 32.7063 17.3017ZM17.9794 33.5354C16.556 33.5354 17.5253 31.8923 17.2224 18.7175C17.2224 17.5363 20.077 17.9604 20.077 17.9604C20.3267 17.9604 20.5085 18.0136 20.6296 18.1722C20.6523 18.3161 20.6976 18.4599 20.7961 18.5736C21.0611 19.8001 20.6218 23.3133 20.834 32.7782C20.834 32.8314 20.8114 32.8615 20.8039 32.9068C20.7133 33.0053 20.6601 33.1339 20.6374 33.2703C20.1598 33.7549 18.8728 33.4293 17.9794 33.5353L17.9794 33.5354ZM32.8043 32.5813C32.8043 32.7705 33.221 32.6419 22.3557 32.672V18.8166H32.7063C32.8954 18.8166 32.7516 18.1882 32.8048 32.582L32.8043 32.5813Z" fill="#245D51"/>
<path d="M30.1317 20.7162C25.3236 20.9585 23.4688 20.1483 23.4688 21.4732C23.4688 21.8898 23.8095 22.2303 24.2258 22.2303C29.0339 21.9879 30.8888 22.7981 30.8888 21.4732C30.8888 21.057 30.5483 20.7162 30.1317 20.7162Z" fill="#245D51"/>
<path d="M49.9993 21.36C49.9993 21.0418 49.7949 20.7542 49.492 20.6482L45.5094 19.2323L43.5786 14.5681L45.396 10.752C45.5324 10.4643 45.4718 10.1161 45.2448 9.88861L40.1111 4.75497C39.4526 4.09642 38.6724 5.04262 35.432 6.42066L30.7678 4.48993L29.3519 0.507301C29.246 0.204409 28.9583 0 28.6402 0H21.3785C21.0603 0 20.7727 0.204409 20.6668 0.507301L19.2508 4.48993L14.5866 6.42066L10.7705 4.60329C10.4828 4.46688 10.1346 4.52747 9.90714 4.75454L4.7735 9.88818C4.11495 10.5467 5.06115 11.3268 6.43919 14.5673L4.50846 19.2315L0.525834 20.6474C-0.382461 20.966 0.20066 21.7382 0.0263474 28.6208C0.0263474 28.9389 0.230756 29.2266 0.533648 29.3325L4.51627 30.7484L6.44701 35.4126L4.62963 39.2288C4.213 40.0995 5.15961 40.2207 9.91446 45.2254C10.573 45.8839 11.3531 44.9377 14.5936 43.5597L19.2577 45.4904L20.6737 49.473C20.9993 50.3817 21.7716 49.7986 28.6468 49.9803C28.9649 49.9803 29.2525 49.7759 29.3585 49.473L30.7744 45.4904L35.4386 43.5597L39.2547 45.3771C40.1255 45.7937 40.2467 44.8471 45.2513 40.0922C45.4784 39.8652 45.539 39.5243 45.4026 39.2289L43.5852 35.4127L45.516 30.7486L49.4986 29.3326C50.4081 29.007 49.825 28.2425 49.9993 21.36ZM48.4848 28.0834C43.0182 30.3624 45.3272 27.5609 42.0564 35.1403C41.9731 35.3373 41.9805 35.5644 42.0716 35.7535L43.7979 39.3879L39.4214 43.7644L35.787 42.0381C35.5901 41.9474 35.3704 41.9396 35.1738 42.0228C28.0794 45.4454 30.419 42.3711 28.117 48.4513H21.9234L20.5758 44.6578C20.3788 44.0974 20.2049 44.3249 14.8669 42.0228C14.3217 41.7958 14.231 42.1366 10.6115 43.7644L6.23497 39.3878C8.9079 33.4593 8.39273 37.3133 5.78826 29.8475C5.56118 29.3023 5.25086 29.4766 1.54809 28.0759V21.8824C7.02992 19.5957 4.71308 22.3897 7.97652 14.8255C8.2036 14.2803 7.85537 14.1818 6.23499 10.5701L10.6115 6.19361L14.2459 7.91993C14.4429 8.01061 14.6625 8.01842 14.8591 7.93518L20.1439 5.74691C20.3409 5.66366 20.4921 5.50459 20.568 5.30019L21.9156 1.50676H28.1091L29.4567 5.30019C29.6537 5.86065 29.8276 5.63318 35.1657 7.9352C35.7109 8.16227 35.8015 7.82146 39.421 6.19367L43.7976 10.5702L42.0712 14.2045C41.8137 14.7419 42.1013 14.6966 44.2443 20.103C44.4714 20.6482 44.7817 20.4739 48.4845 21.8746L48.4848 28.0834Z" fill="#245D51"/>
</svg>
