<svg width="50" height="50" viewBox="0 0 50 50" fill="none" xmlns="http://www.w3.org/2000/svg">
<path d="M48.9585 1.06437e-05H41.3696C40.7937 1.06437e-05 40.3281 0.46606 40.3281 1.04153V3.79644H9.67188V1.04153C9.67188 0.465613 9.20583 1.06437e-05 8.63036 1.06437e-05H1.04152C0.466049 1.06437e-05 0 0.46606 0 1.04153V8.63037C0 9.20628 0.466049 9.67189 1.04152 9.67189H3.79118V20.1638H1.04152C0.465603 20.1638 0 20.6299 0 21.2054V28.7942C0 29.3701 0.466049 29.8357 1.04152 29.8357H3.79118V40.3277L1.04152 40.3281C0.465603 40.3281 0 40.7942 0 41.3696V48.9585C0 49.5344 0.466049 50 1.04152 50H8.63036C9.20627 50 9.67188 49.534 9.67188 48.9585V46.2049H20.4577C20.4594 46.2049 20.4608 46.2058 20.4629 46.2058H29.5411C29.5428 46.2058 29.5441 46.2049 29.5463 46.2049H40.3281V48.9585C40.3281 49.5344 40.7941 50 41.3696 50H48.9584C49.5344 50 50 49.534 50 48.9585V41.3696C50 40.7937 49.5339 40.3281 48.9584 40.3281H46.2067V29.8362H48.9584C49.5344 29.8362 50 29.3701 50 28.7946V21.2058C50 20.6299 49.5339 20.1643 48.9584 20.1643H46.2067V9.67188H48.9584C49.5344 9.67188 50 9.20583 50 8.63036V1.04152C50 0.46605 49.5339 1.06437e-05 48.9585 1.06437e-05ZM2.08348 2.08349H7.58884V4.83316C7.58884 4.8349 7.58797 4.83621 7.58797 4.83839C7.58797 4.84013 7.58884 4.84144 7.58884 4.84362V7.58938L2.08348 7.58894V2.08349ZM2.08348 22.2476H7.58884V27.7529H2.08348V22.2476ZM2.08348 47.9172V42.4118H7.58884V45.1584C7.58884 45.1601 7.58797 45.1614 7.58797 45.1636C7.58797 45.1654 7.58884 45.1667 7.58884 45.1688V47.9172L2.08348 47.9172ZM26.0411 44.1221V24.1601L28.4987 23.2035V44.1221L26.0411 44.1221ZM25.0017 22.3297L21.8742 21.1137L25.0057 14.3654L28.1294 21.1124L25.0017 22.3297ZM21.5044 23.2047L23.958 24.159V44.1222H21.5044V23.2047ZM47.9162 47.9178H42.4109V42.4125H47.9162V47.9178ZM47.9162 27.7538H42.4109V22.2484H47.9162V27.7538ZM44.1229 20.1649H41.3694C40.7934 20.1649 40.3278 20.631 40.3278 21.2065V28.7953C40.3278 29.3712 40.7939 29.8368 41.3694 29.8368H44.1229V40.3288H41.3694C40.7934 40.3288 40.3278 40.7948 40.3278 41.3703V44.1221L30.5823 44.1225V21.6806C30.5823 21.6387 30.5605 21.6012 30.5557 21.5598C30.5457 21.4739 30.5439 21.3876 30.5112 21.303C30.5069 21.2917 30.4973 21.2851 30.4925 21.2742C30.4881 21.2642 30.4903 21.2529 30.4855 21.2433L25.9515 11.4511C25.7815 11.0827 25.4122 10.8468 25.0063 10.8468C24.6004 10.8468 24.232 11.0818 24.0611 11.4502L19.517 21.2424C19.5136 21.2494 19.5153 21.2581 19.5118 21.2651C19.5057 21.2795 19.4931 21.2886 19.4874 21.3034C19.4438 21.4159 19.432 21.5315 19.4281 21.6457C19.4277 21.6579 19.4203 21.6688 19.4203 21.681V21.6906C19.4203 21.7028 19.4198 21.7146 19.4203 21.7268V44.123H9.67082V41.3712C9.67082 40.7953 9.20477 40.3297 8.6293 40.3297H5.87361L5.87448 29.8373H8.63017C9.20609 29.8373 9.67169 29.3712 9.67169 28.7957V21.2069C9.67169 20.631 9.20564 20.1654 8.63017 20.1654H5.87448V9.67297H8.63017C9.20609 9.67297 9.67169 9.20692 9.67169 8.63145V5.88089H40.3279V8.63145C40.3279 9.20736 40.794 9.67297 41.3695 9.67297H44.123L44.1229 20.1649ZM47.9162 7.59017H42.4109V2.08481H47.9162V7.59017Z" fill="#245D51"/>
</svg>
