<svg width="44" height="50" viewBox="0 0 44 50" fill="none" xmlns="http://www.w3.org/2000/svg">
<path d="M5.85129 28.1906C5.85129 21.4219 10.1448 15.3697 16.536 13.131C16.9712 12.9785 17.2584 12.5633 17.2477 12.1029L17.1597 8.21925C17.1523 7.8894 16.9928 7.5822 16.7271 7.38667C16.4618 7.1915 16.1208 7.13029 15.8043 7.22007C6.49926 9.87591 0 18.4994 0 28.1906C0 34.2124 2.52562 40.0237 6.92859 44.1355C11.0133 47.9482 16.2396 50.0004 21.7888 49.9996C22.3064 49.9996 22.827 49.9822 23.349 49.9458C34.2987 49.193 42.9983 40.3553 43.5843 29.3875C44.135 19.097 37.6115 9.97095 27.7202 7.19458C27.3988 7.10516 27.0553 7.17009 26.79 7.37119C26.5247 7.57229 26.3689 7.88618 26.3689 8.219V12.1271C26.3689 12.5794 26.6546 12.9812 27.0812 13.1315C33.4726 15.3702 37.766 21.4221 37.766 28.1911C37.766 36.9901 30.6077 44.1484 21.8087 44.1484C13.0097 44.1484 5.85142 36.9898 5.85142 28.1911L5.85129 28.1906ZM39.8935 28.1906C39.8935 20.7741 35.3446 14.1159 28.4973 11.3899V9.6746C36.6589 12.5979 41.9318 20.4628 41.4607 29.2745C40.9316 39.1699 33.0828 47.1447 23.2039 47.8239C17.673 48.2042 12.4109 46.3419 8.38261 42.5805C4.40811 38.8702 2.12888 33.6257 2.12888 28.1914C2.12888 19.9134 7.383 12.4982 15.0657 9.69616L15.1039 11.3966C8.26619 14.1281 3.72483 20.7807 3.72483 28.1916C3.72483 38.1639 11.8374 46.2765 21.8097 46.2765C31.7821 46.2765 39.8946 38.1639 39.8946 28.1916L39.8935 28.1906Z" fill="#245D51"/>
<path d="M23.6703 0H19.947C19.3597 0 18.8833 0.476771 18.8833 1.06372V28.1911C18.8833 28.7784 19.3601 29.2548 19.947 29.2548H23.6703C24.2576 29.2548 24.734 28.778 24.734 28.1911V1.06372C24.734 0.476381 24.2572 0 23.6703 0ZM22.6062 27.1274H21.0104L21.0107 2.12764H22.6066L22.6062 27.1274Z" fill="#245D51"/>
</svg>
