<svg width="48" height="50" viewBox="0 0 48 50" fill="none" xmlns="http://www.w3.org/2000/svg">
<path d="M19.5751 22.7334C25.8252 22.7334 30.9072 17.6509 30.9072 11.4012C30.9072 5.1511 25.8247 0 19.5751 0C13.3249 0 8.24287 5.08254 8.24287 11.4012C8.17388 17.6509 13.325 22.7334 19.5751 22.7334ZM19.5751 2.8845C24.2451 2.8845 28.0917 6.73053 28.0917 11.4011C28.0917 16.0712 24.2456 19.9177 19.5751 19.9177C14.905 19.9172 11.0584 16.0712 11.0584 11.4011C11.0584 6.73053 14.905 2.8845 19.5751 2.8845Z" fill="#245D51"/>
<path d="M7.07472 27.1294H13.2558C14.0113 29.7394 16.0028 32.3491 19.5745 32.3491C23.0771 32.3491 25.0691 29.6021 25.8246 27.1294H32.0057L33.1732 32.0745L35.8518 31.3875L34.1347 24.3818H23.489L23.4205 25.5498C23.4205 25.5498 23.283 26.6489 22.665 27.6788C21.9095 28.9839 20.948 29.6019 19.5744 29.6019C16.4149 29.6019 15.7969 25.7559 15.7969 25.5498L15.6594 24.3823H5.01362L0 44.0252L2.67857 44.7122L7.07472 27.1294Z" fill="#245D51"/>
<path d="M30.2202 49.1067L35.4399 35.7139L37.7064 36.6069L32.4867 49.9997L30.2202 49.1067Z" fill="#245D51"/>
<path d="M47.5279 42.5139L41.4838 49.2445L39.6982 47.5961L44.2308 42.651L39.6982 38.1184L41.4153 36.4014L47.5279 42.5139Z" fill="#245D51"/>
<path d="M28.2286 38.0493L23.696 43.0629L28.2286 47.5274L26.5116 49.2445L20.3989 43.1318L26.443 36.4697L28.2286 38.0493Z" fill="#245D51"/>
</svg>
