<svg width="42" height="50" viewBox="0 0 42 50" fill="none" xmlns="http://www.w3.org/2000/svg">
<path d="M37.0535 31.3255C33.4891 29.6912 29.8302 28.2708 26.0963 27.0717C29.6004 24.0728 31.6674 18.4443 31.6674 14.1668V10.8334C31.6674 6.96276 29.6026 3.38652 26.2506 1.45116C22.8987 -0.483721 18.7691 -0.483721 15.4172 1.45116C12.0652 3.38643 10.0004 6.96276 10.0004 10.8334V14.1668C10.0004 18.4447 12.0674 24.0736 15.5715 27.0717C11.8379 28.2708 8.17897 29.6912 4.61425 31.3255C3.63309e-07 33.7344 0 44.158 0 49.1667C0 49.3876 0.0877993 49.5997 0.244051 49.756C0.400302 49.9122 0.612361 50 0.833345 50H40.8339C41.0549 50 41.2669 49.9122 41.4232 49.756C41.5794 49.5997 41.6672 49.3876 41.6672 49.1667C41.6672 44.1576 41.6672 33.7341 37.053 31.3255H37.0535ZM26.1439 28.8522L24.113 31.8318L22.2755 29.0166C23.0084 28.8667 23.716 28.6114 24.3753 28.258C24.7503 28.3819 25.3694 28.5884 26.1439 28.8522ZM19.3942 32.0643L20.8343 29.8582L22.2744 32.0643C21.348 32.4245 20.3205 32.4245 19.3942 32.0643ZM28.2161 14.166C27.9337 13.0403 27.081 12.1451 25.9702 11.8081C24.8597 11.4714 23.6536 11.7418 22.7931 12.5209C22.2216 12.1139 21.5393 11.8914 20.8381 11.8832C20.1364 11.875 19.4493 12.0811 18.8682 12.4744C18.0017 11.7218 16.8064 11.4736 15.7114 11.8185C14.617 12.1637 13.7803 13.0525 13.5016 14.1659H11.6675C11.6028 12.5149 11.6534 10.8612 11.8189 9.21683C14.1987 9.30463 16.5235 8.48951 18.3272 6.93442C20.8142 9.28597 26.3388 10.6454 29.9997 10.8139C30.009 10.9307 30.0008 14.1658 30.0008 14.1658L28.2161 14.166ZM26.6677 14.9993C26.6677 15.4413 26.4921 15.8654 26.1796 16.1779C25.8671 16.4904 25.443 16.666 25.001 16.666C24.559 16.666 24.1349 16.4904 23.8224 16.1779C23.5099 15.8654 23.3343 15.4413 23.3343 14.9993C23.3343 14.5574 23.5099 14.1333 23.8224 13.8208C24.1349 13.5083 24.559 13.3327 25.001 13.3327C25.443 13.333 25.8663 13.509 26.1788 13.8215C26.4913 14.134 26.6673 14.5574 26.6677 14.9993ZM18.3834 14.9993C18.3834 15.4413 18.2078 15.8654 17.8953 16.1779C17.5828 16.4904 17.159 16.666 16.7167 16.666C16.2747 16.666 15.851 16.4904 15.5385 16.1779C15.2256 15.8654 15.05 15.4413 15.05 14.9993C15.05 14.5574 15.2256 14.1333 15.5385 13.8208C15.851 13.5083 16.2747 13.3327 16.7167 13.3327C17.1587 13.333 17.5824 13.509 17.8949 13.8215C18.2074 14.134 18.383 14.5574 18.3834 14.9993ZM20.8343 1.66583C22.9697 1.66918 25.0367 2.41696 26.68 3.78043C28.3236 5.14388 29.44 7.03752 29.837 9.13574C25.9113 8.9062 20.5742 7.27372 19.0692 5.27855V5.27817C18.933 5.08732 18.7206 4.96455 18.487 4.94148C18.2537 4.91842 18.0212 4.99729 17.8501 5.158C16.3694 6.6424 14.3764 7.50327 12.2805 7.56432C12.9427 5.83182 14.115 4.34028 15.6421 3.2875C17.1689 2.23425 18.9796 1.66881 20.8346 1.66586L20.8343 1.66583ZM11.785 15.8327H13.5015C13.7236 16.7222 14.3032 17.4808 15.1034 17.9283C15.9037 18.3759 16.8531 18.4734 17.7278 18.1969C18.602 17.9209 19.3234 17.2959 19.7211 16.4696C20.1188 15.6437 20.1579 14.6897 19.8286 13.8341C20.1348 13.6362 20.4946 13.5369 20.8587 13.5491C21.2233 13.561 21.5753 13.6838 21.8681 13.9015C21.7394 14.2534 21.6713 14.6247 21.6676 14.9993C21.6653 16.0897 22.1973 17.1117 23.0921 17.7352C23.9864 18.3587 25.1297 18.5042 26.1516 18.1247C27.1739 17.7453 27.9452 16.8888 28.216 15.8327H29.8835C29.2421 21.0028 25.7941 27.4995 20.8342 27.4995C15.8743 27.4995 12.4265 21.0028 11.785 15.8327ZM19.393 29.0167L17.5556 31.8319L15.5217 28.8478C16.3101 28.5792 16.938 28.3698 17.287 28.2548C17.9481 28.6097 18.6576 28.8664 19.393 29.0167ZM5.38617 32.8036C8.1522 31.5093 10.9912 30.3769 13.8889 29.4122L16.8815 33.8029C17.0392 34.0321 17.3004 34.1679 17.5786 34.1653C17.8566 34.1623 18.1151 34.0213 18.268 33.7892L18.4674 33.4837C18.7037 33.5883 18.9455 33.6787 19.1925 33.7542L18.7182 36.6668H10.0004C9.77946 36.6668 9.5674 36.7546 9.41115 36.9109C9.2549 37.0671 9.16709 37.2792 9.16709 37.5001V48.3336H1.66776C1.68189 43.9169 1.90511 34.6211 5.38619 32.8039L5.38617 32.8036ZM20.834 34.0436L21.2615 36.6668H20.4065L20.834 34.0436ZM20.834 48.3333H10.8339V38.3332H30.8341V48.3333H20.834ZM32.5008 48.3333V37.4998C32.5008 37.2789 32.413 37.0668 32.2568 36.9105C32.1005 36.7543 31.8885 36.6665 31.6675 36.6665H22.9497L22.475 33.7539H22.4754C22.7224 33.6784 22.9642 33.588 23.2005 33.4834L23.3999 33.7889C23.5517 34.0229 23.8106 34.1657 24.0893 34.1683C24.3683 34.1713 24.6302 34.0336 24.7864 33.8026L27.7765 29.4157V29.4161C30.6746 30.3792 33.5147 31.5106 36.2818 32.8034C39.7629 34.6207 39.9862 43.9168 40.0003 48.3331L32.5008 48.3333Z" fill="#245D51"/>
<path d="M18.018 41.0772C17.8617 40.9209 17.65 40.8331 17.4287 40.8331C17.2077 40.8331 16.996 40.9209 16.8398 41.0772L15.1731 42.7454V42.7458C14.8479 43.0713 14.8479 43.5985 15.1731 43.924L16.8364 45.5891C17.1623 45.9117 17.6876 45.9102 18.0121 45.5862C18.3361 45.2621 18.338 44.7368 18.0158 44.4105L16.9406 43.3346L18.0187 42.2557C18.175 42.0991 18.2628 41.8874 18.2628 41.6664C18.2624 41.4455 18.1746 41.2334 18.018 41.0772Z" fill="#245D51"/>
<path d="M23.6506 41.0772C23.8068 40.9209 24.0185 40.8331 24.2399 40.8331C24.4608 40.8331 24.6725 40.9209 24.8288 41.0772L26.4955 42.7454V42.7458C26.8206 43.0713 26.8206 43.5985 26.4955 43.924L24.8321 45.5891C24.5062 45.9117 23.9809 45.9102 23.6565 45.5862C23.3325 45.2621 23.3306 44.7368 23.6528 44.4105L24.7279 43.3346L23.6498 42.2557C23.4936 42.0991 23.4058 41.8874 23.4058 41.6664C23.4061 41.4455 23.4939 41.2334 23.6506 41.0772Z" fill="#245D51"/>
<path d="M20.8343 40C20.6133 40 20.4013 40.0878 20.245 40.2441C20.0888 40.4003 20.001 40.6124 20.001 40.8333V45.8334C20.001 46.2936 20.3741 46.6668 20.8343 46.6668C21.2945 46.6668 21.6677 46.2936 21.6677 45.8334V40.8333C21.6677 40.6124 21.5799 40.4003 21.4236 40.2441C21.2674 40.0878 21.0553 40 20.8343 40Z" fill="#245D51"/>
</svg>
