<svg width="50" height="50" viewBox="0 0 50 50" fill="none" xmlns="http://www.w3.org/2000/svg">
<path d="M49.1826 10.9179C49.0956 10.6094 48.8344 10.388 48.5179 10.3563C40.1085 9.55718 40.2669 1.14768 40.2745 0.791685C40.2826 0.554211 40.1795 0.324756 39.9897 0.174695C39.8076 0.0242703 39.5545 -0.0387415 39.325 0.0242703C31.2477 1.97831 25.0686 1.69346 25.0061 1.69346H24.9271C24.9191 1.69346 23.7245 1.75683 21.6994 1.6381C19.1914 1.51936 15.236 1.14749 10.6318 0.0242004C10.4023 -0.031161 10.1572 0.0242003 9.96705 0.174625C9.78495 0.325049 9.67422 0.554505 9.68223 0.791615C9.69024 1.14746 9.84831 9.55732 1.4465 10.3562C1.13801 10.3879 0.876861 10.6013 0.781803 10.9022C0.781803 10.9022 0.726442 11.0999 0.647406 11.4481C0.196869 13.5285 -1.05311 20.9652 1.92144 29.1218C5.33124 38.5438 12.9975 45.5452 24.6982 49.9527C24.7852 49.9843 24.8803 50 24.9673 50C25.0544 50 25.1494 49.9843 25.2365 49.9527C56.3042 38.2361 49.2552 11.1871 49.1834 10.9185L49.1826 10.9179ZM47.4817 25.7039C44.863 36.0601 37.2915 43.6947 24.9661 48.4098C13.8593 44.1693 6.5884 37.5082 3.36882 28.6C0.544661 20.8786 1.69963 13.8615 2.14252 11.8279C9.66617 10.8154 10.9635 4.24889 11.185 1.7328C15.5203 2.72161 19.2306 3.06184 21.6363 3.17252C23.5586 3.28324 24.7533 3.24354 24.9908 3.22788C25.5684 3.25957 31.201 3.44933 38.8034 1.73277C39.0248 4.25641 40.3145 10.8149 47.8382 11.8279C48.1784 13.4894 49.1436 19.1458 47.482 25.7039L47.4817 25.7039Z" fill="#245D51"/>
<path d="M44.6977 14.2411C39.5 12.5165 37.3482 8.31556 36.5254 5.95798C36.3987 5.60214 36.0428 5.38834 35.679 5.45171C31.4543 6.15575 28.0762 6.29816 25.995 6.29816C25.5441 6.29816 25.2196 6.29014 24.9588 6.28249C24.7611 6.29051 24.4366 6.29816 24.0016 6.29816C23.2106 6.29816 22.3481 6.27448 21.4937 6.21912C19.1521 6.1084 16.7311 5.84725 14.2865 5.4437C13.9226 5.38032 13.5588 5.59412 13.44 5.94996C12.6173 8.30754 10.4655 12.5085 5.27572 14.2411C4.99089 14.3361 4.78511 14.5893 4.75342 14.8897C4.4289 17.912 4.42125 22.5559 6.24853 27.5639C9.0173 35.214 15.22 41.0847 24.6737 45.0082C24.7688 45.0479 24.8715 45.0636 24.9666 45.0636C25.0693 45.0636 25.1643 45.0479 25.2594 45.0082C45.3546 36.638 45.9075 21.1639 45.2119 14.8981C45.1879 14.59 44.9821 14.3369 44.6973 14.2418L44.6977 14.2411ZM24.9672 43.4579C16.0984 39.7079 10.2837 34.1856 7.69625 27.0336C6.06641 22.5639 5.97933 18.3867 6.24049 15.5306C10.1169 14.0909 13.0839 11.1162 14.666 7.07341C16.9522 7.42925 19.2227 7.65871 21.4142 7.76179C22.2924 7.81715 23.1865 7.84082 24.0013 7.84082C24.4602 7.84082 24.8084 7.83281 24.9665 7.82516C25.1799 7.83317 25.5281 7.84082 26.0027 7.84082C28.0438 7.84082 31.2795 7.70643 35.3143 7.07341C36.8965 11.1162 39.8634 14.0909 43.7558 15.5306C44.3098 21.694 43.329 35.6649 24.967 43.4579L24.9672 43.4579Z" fill="#245D51"/>
<path d="M37.4193 20.7204L34.6978 19.8186C34.5634 19.4231 34.405 19.0356 34.2152 18.6476L35.5049 16.0923C35.6554 15.7994 35.592 15.4356 35.3625 15.2061L32.9416 12.7932C32.7121 12.5637 32.3482 12.5003 32.0554 12.6508L29.5001 13.9324C29.1202 13.7503 28.7246 13.5842 28.3371 13.4498L27.4353 10.7283C27.3326 10.4118 27.0397 10.2061 26.7076 10.2061H23.2897C22.9576 10.2061 22.6647 10.4195 22.562 10.7283L21.6602 13.4498C21.2727 13.5842 20.8848 13.7427 20.4972 13.9324L17.9419 12.6508C17.6491 12.5003 17.2932 12.5557 17.0557 12.7932L14.6348 15.2061C14.3973 15.4436 14.3419 15.7994 14.4923 16.0923L15.782 18.6476C15.5923 19.0275 15.4339 19.423 15.2995 19.8186L12.578 20.7204C12.2615 20.8231 12.0557 21.116 12.0557 21.4481V24.866C12.0557 25.1981 12.2691 25.491 12.578 25.5937L15.2995 26.4955C15.4339 26.891 15.5923 27.2786 15.782 27.6585L14.5004 30.2138C14.3499 30.5066 14.4133 30.8705 14.6428 31.1L17.0477 33.5209C17.2772 33.7584 17.641 33.8138 17.9339 33.6634L20.4812 32.3737C20.8611 32.5634 21.2566 32.7218 21.6522 32.8562L22.554 35.5777C22.6567 35.8942 22.9496 36.1 23.2817 36.1H26.6995C27.0317 36.1 27.3245 35.8866 27.4272 35.5777L28.3291 32.8562C28.7246 32.7218 29.1121 32.5634 29.5001 32.3737L32.0474 33.6634C32.3402 33.8138 32.6961 33.7584 32.9335 33.5209L35.3545 31.1C35.592 30.8625 35.6474 30.5066 35.4969 30.2138L34.2152 27.6585C34.405 27.271 34.5634 26.8831 34.6978 26.4955L37.4193 25.5937C37.7358 25.491 37.9416 25.1981 37.9416 24.866V21.4481C37.9493 21.116 37.7359 20.8231 37.4193 20.7204ZM36.4145 24.3121L33.8511 25.1585C33.6137 25.2375 33.4239 25.4277 33.3529 25.6728C33.1948 26.2187 32.973 26.7647 32.6882 27.2947C32.5694 27.5161 32.5694 27.7773 32.6802 27.9987L33.8904 30.4037L32.2529 32.0412L29.848 30.8309C29.6265 30.7202 29.3574 30.7202 29.1359 30.8389C28.6136 31.1237 28.0681 31.3452 27.514 31.5113C27.2689 31.5823 27.0788 31.7644 26.9997 32.0095L26.1533 34.5729H23.8431L22.9966 32.0095C22.9176 31.772 22.7275 31.5823 22.4824 31.5113C21.9287 31.3532 21.3828 31.1237 20.8604 30.8389C20.639 30.7202 20.3779 30.7122 20.1484 30.8309L17.7435 32.0412L16.106 30.4037L17.3162 27.9987C17.4269 27.7773 17.4269 27.5161 17.3082 27.2947C17.0234 26.7647 16.8019 26.2188 16.6435 25.6728C16.5725 25.4277 16.3904 25.2375 16.1453 25.1585L13.5819 24.3121V22.0018L16.1453 21.1554C16.3827 21.0764 16.5725 20.8862 16.6435 20.6411C16.8016 20.0875 17.031 19.5415 17.3159 19.0192C17.4346 18.7978 17.4426 18.5366 17.3239 18.3072L16.1136 15.8942L17.7511 14.2643L20.1641 15.4746C20.3855 15.5853 20.6467 15.5853 20.8681 15.4666C21.398 15.1818 21.944 14.9603 22.49 14.8019C22.7275 14.7309 22.9253 14.5488 23.0043 14.3113L23.8507 11.7479H26.161L27.0074 14.3113C27.0864 14.5488 27.2766 14.7385 27.5217 14.8019C28.0676 14.96 28.6136 15.1894 29.1436 15.4666C29.365 15.5853 29.6262 15.5853 29.8476 15.4746L32.2606 14.2643L33.8981 15.8942L32.6878 18.3072C32.5771 18.5286 32.5771 18.7978 32.6958 19.0192C32.9807 19.5415 33.2021 20.0871 33.3682 20.6411C33.4392 20.8786 33.6213 21.0764 33.8664 21.1554L36.4298 22.0018L36.4305 24.3121H36.4145Z" fill="#245D51"/>
<path d="M24.9989 16.2186C21.1699 16.2186 18.0605 19.3276 18.0605 23.157C18.0605 26.978 21.1696 30.0874 24.9989 30.0874C28.8279 30.0874 31.9373 26.9784 31.9373 23.157C31.9369 19.336 28.8199 16.2186 24.9989 16.2186ZM24.9989 28.5525C22.0164 28.5525 19.5954 26.1315 19.5954 23.1569C19.5954 20.1743 22.0164 17.7534 24.9989 17.7534C27.9815 17.7534 30.4025 20.1743 30.4025 23.1569C30.4021 26.1315 27.9735 28.5525 24.9989 28.5525Z" fill="#245D51"/>
<path d="M26.7939 20.6884L23.9697 23.5126L23.1706 22.7135C22.8701 22.413 22.3875 22.413 22.0867 22.7135C21.7862 23.0139 21.7862 23.4965 22.0867 23.7974L23.4318 25.1425C23.5822 25.2929 23.78 25.3639 23.9777 25.3639C24.1755 25.3639 24.3733 25.2929 24.5237 25.1425L27.8939 21.7723C28.1944 21.4718 28.1944 20.9892 27.8939 20.6884C27.5774 20.3879 27.0947 20.3879 26.7939 20.6884Z" fill="#245D51"/>
</svg>
