<svg width="50" height="50" viewBox="0 0 50 50" fill="none" xmlns="http://www.w3.org/2000/svg">
<path d="M48.9577 41.6668H47.9162V15.625C47.9162 14.7963 47.587 14.0014 47.0007 13.4152C46.4148 12.8292 45.6199 12.5 44.7913 12.5H38.5413C37.9658 12.5 37.4995 12.9663 37.4995 13.5418C37.4995 14.1169 37.9658 14.5832 38.5413 14.5832H44.7913C45.0675 14.5832 45.3322 14.6931 45.5279 14.8884C45.7232 15.0837 45.8327 15.3488 45.8327 15.625V41.6668H30.2078C29.4474 41.6668 29.3327 42.1251 28.5204 43.75H21.4788L20.7185 42.2395C20.3121 41.4272 20.8956 41.6668 4.16676 41.6668V15.625C4.16676 15.0499 4.63307 14.5832 5.20819 14.5832H14.5831C15.1586 14.5832 15.6249 14.1169 15.6249 13.5418C15.6249 12.9663 15.1586 12.5 14.5831 12.5H5.20819C4.37951 12.5 3.58462 12.8292 2.99873 13.4152C2.41245 14.0015 2.0832 14.7963 2.0832 15.625V41.6668H1.04178C0.46631 41.6668 0 42.1331 0 42.7082V44.7918C0 46.173 0.548613 47.498 1.52553 48.4745C2.50213 49.4513 3.82703 50 5.20819 50H44.7919C46.1731 50 47.4981 49.4514 48.4746 48.4745C49.4514 47.4979 50.0001 46.173 50.0001 44.7918V42.7082C50.0001 42.432 49.8902 42.1673 49.6949 41.9716C49.4996 41.7763 49.2346 41.6668 48.9583 41.6668L48.9577 41.6668ZM47.9159 44.7918H47.9162C47.9162 45.6205 47.587 46.4154 47.0007 47.0013C46.4148 47.5876 45.6199 47.9168 44.7912 47.9168H5.20751C4.37884 47.9168 3.58395 47.5876 2.99806 47.0013C2.41177 46.4153 2.08253 45.6205 2.08253 44.7918V43.75H19.1449C19.9886 45.4273 20.0615 45.8332 20.8323 45.8332C29.8117 45.8332 29.707 46.0414 30.092 45.2602L30.8527 43.75H47.9151L47.9159 44.7918Z" fill="#245D51"/>
<path d="M15.948 20.3748C15.5518 20.1718 15.0705 20.243 14.75 20.552L12.5001 22.7604C11.4165 23.8482 10.7713 25.2969 10.6875 26.8302C10.6038 28.3634 11.0876 29.8735 12.0464 31.073C13.0048 32.2724 14.3716 33.077 15.8856 33.333C27.0106 38.1038 26.2293 37.8122 26.5311 37.8122C27.1146 37.8122 27.0208 37.8122 30.2187 34.5624H30.2183C30.4314 34.3514 30.543 34.0592 30.5252 33.7599C30.5071 33.4607 30.3613 33.1837 30.1245 32.9999L23.8745 28.1458C26.4335 26.5143 29.2516 25.3305 32.2081 24.6459C33.0817 25.2423 34.1985 25.3563 35.1748 24.9483C36.151 24.5402 36.8547 23.6659 37.0445 22.6251C37.2339 21.584 36.884 20.5175 36.1143 19.7917L33.8225 17.4999C34.685 16.1547 34.8821 14.4883 34.3575 12.9788C33.833 11.4697 32.6443 10.2845 31.1339 9.76414C29.623 9.24413 27.9569 9.44606 26.6142 10.3124L24.3224 8.03108H24.3228C23.5851 7.29587 22.5297 6.97644 21.5082 7.17903C20.4867 7.38166 19.6332 8.07992 19.2322 9.04107C18.8311 10.0023 18.9354 11.0999 19.5101 11.9686C18.7965 14.9485 17.5926 17.7892 15.9478 20.3747L15.948 20.3748ZM14.0106 24.2395L15.4897 22.7604L21.3857 28.6564L19.9066 30.125L19.9062 30.1247C18.8463 31.1337 17.3351 31.5124 15.9247 31.1229C14.5142 30.7336 13.4115 29.6326 13.0194 28.2229C12.6274 26.8132 13.0037 25.3012 14.0106 24.2396L14.0106 24.2395ZM26.3016 35.5207L19.7915 32.7291C21.0206 32.1041 21.3644 31.6354 22.9165 30.0414L27.8956 33.9062L26.3016 35.5207ZM32.2914 16.0003L28.1247 11.8335V11.8338C28.907 11.46 29.8096 11.4282 30.6163 11.746C31.423 12.0633 32.0616 12.7019 32.3793 13.5086C32.6967 14.3153 32.665 15.218 32.2914 16.0003ZM22.854 9.51065L34.6352 21.2918C34.9888 21.7051 34.9651 22.3214 34.5804 22.7061C34.1957 23.0908 33.5794 23.1145 33.1661 22.7609L21.385 10.9797C21.1645 10.791 21.033 10.519 21.0219 10.2288C21.0104 9.93895 21.1209 9.65715 21.326 9.45207C21.5311 9.24699 21.8129 9.13643 22.1027 9.14795C22.3929 9.15911 22.6649 9.2906 22.8536 9.51102L22.854 9.51065ZM21.2186 13.7709L30.3748 22.9173C27.5309 23.7889 24.8161 25.036 22.3022 26.6254L17.5209 21.8755C19.1137 19.3535 20.3577 16.6272 21.2185 13.7714L21.2186 13.7709Z" fill="#245D51"/>
<path d="M36.4578 8.33333C37.0413 8.33333 36.7703 8.45819 41.3639 3.86452L41.3643 3.86486C41.7727 3.45611 41.7727 2.79416 41.3643 2.38541C40.9555 1.977 40.2936 1.977 39.8848 2.38541L35.7181 6.55217H35.7184C35.4178 6.85037 35.3275 7.30029 35.49 7.69127C35.6522 8.08225 36.0347 8.33578 36.4578 8.33333Z" fill="#245D51"/>
<path d="M31.2497 6.24997V1.04178C31.2497 0.46631 30.7834 0 30.2079 0C29.6328 0 29.1665 0.46631 29.1665 1.04178V6.24997C29.1665 6.82509 29.6328 7.29175 30.2079 7.29175C30.7834 7.29175 31.2497 6.82509 31.2497 6.24997Z" fill="#245D51"/>
</svg>
