<svg width="66" height="50" viewBox="0 0 66 50" fill="none" xmlns="http://www.w3.org/2000/svg">
<path d="M17.5722 31.5226H9.9636C9.38722 31.5226 8.83403 31.7514 8.42645 32.159C8.01886 32.5666 7.78955 33.1198 7.78955 33.6962V38.0443C7.78955 38.6207 8.01884 39.1739 8.42645 39.5815C8.83406 39.9891 9.38724 40.2179 9.9636 40.2179H17.5722C18.149 40.2179 18.7017 39.9891 19.1093 39.5815C19.5174 39.1739 19.7462 38.6207 19.7462 38.0443V33.6962C19.7462 33.1198 19.5174 32.5666 19.1093 32.159C18.7017 31.7514 18.149 31.5226 17.5722 31.5226ZM9.9636 38.0443V33.6962H17.5722V38.0439L9.9636 38.0443Z" fill="#245D51"/>
<path d="M60.1091 6.5751C59.3776 5.84495 58.3858 5.43506 57.3522 5.43506C56.3182 5.43506 55.3269 5.84494 54.5949 6.5751L50.0002 11.1634V4.34815C50.0002 3.19493 49.5421 2.08906 48.7269 1.27384C47.9116 0.458165 46.8057 0 45.6525 0H4.34768C3.19492 0 2.08894 0.458106 1.27337 1.27384C0.458153 2.08906 0 3.19496 0 4.34815V45.6519C0 46.8051 0.458107 47.9109 1.27337 48.7262C2.08905 49.5418 3.19496 50 4.34768 50H45.6525C46.8058 50 47.9116 49.5419 48.7269 48.7262C49.5421 47.9109 50.0002 46.805 50.0002 45.6519V30.1394L64.0651 16.0687C64.8021 15.3404 65.217 14.3473 65.217 13.3109C65.217 12.2746 64.8021 11.2815 64.0651 10.5531L60.1091 6.5751ZM31.0325 33.9618C31.1717 33.5601 31.3587 33.1771 31.5893 32.8204L37.834 39.0651C37.4796 39.293 37.0998 39.4791 36.7022 39.6183L28.4099 42.3919C28.3698 42.4006 28.328 42.3883 28.2989 42.3596C28.2698 42.3305 28.2579 42.2887 28.2666 42.2486L31.0325 33.9618ZM39.4568 37.6094L33.0438 31.1964L48.3955 15.8423L54.8085 22.2553L39.4568 37.6094ZM49.9327 14.3045L52.3707 11.8666L58.7837 18.2796L56.3466 20.7175L49.9327 14.3045ZM16.3049 2.17407H33.6958V18.3702C33.6927 18.8069 33.4511 19.2072 33.0662 19.4138C32.6814 19.6207 32.2142 19.6007 31.8479 19.3628L25.6078 15.202V15.2016C25.2425 14.9577 24.7666 14.9577 24.4014 15.2016L18.1526 19.3627C17.7864 19.6006 17.3196 19.6206 16.9348 19.4136C16.5499 19.2071 16.3083 18.8068 16.3047 18.3701L16.3049 2.17407ZM47.8271 45.6521C47.8271 46.2289 47.5978 46.7817 47.1902 47.1892C46.7826 47.5973 46.2294 47.8261 45.653 47.8261H4.34817C3.77179 47.8261 3.2186 47.5973 2.81102 47.1892C2.40341 46.7816 2.17459 46.2289 2.17459 45.6521V4.34838C2.17459 3.77154 2.40341 3.21881 2.81102 2.81123C3.21863 2.40316 3.77181 2.17433 4.34817 2.17433H14.1308V18.3704C14.1326 19.1856 14.4302 19.9727 14.9679 20.5855C15.5056 21.1983 16.2471 21.5954 17.0551 21.7032C17.8635 21.8111 18.6832 21.6223 19.3624 21.1714L25.0007 17.4137L30.6385 21.1714C31.3181 21.6223 32.1379 21.8111 32.9458 21.7032C33.7542 21.5954 34.4958 21.1983 35.0335 20.5855C35.5712 19.9727 35.8682 19.1856 35.8701 18.3704V2.17433H45.6527C46.2291 2.17433 46.7823 2.40315 47.1899 2.81123C47.5975 3.21884 47.8268 3.77157 47.8268 4.34838V13.3377L30.7258 30.4352C29.936 31.2327 29.3373 32.199 28.9748 33.2612L26.2043 41.5526C26.0219 42.093 26.0483 42.6817 26.278 43.204C26.5082 43.7258 26.9254 44.1425 27.4476 44.3722C27.9694 44.6019 28.5586 44.6279 29.0986 44.445L37.4009 41.6731C38.4599 41.311 39.423 40.7137 40.2182 39.9262L47.8267 32.3176L47.8271 45.6521ZM62.5348 14.5223L60.3207 16.7387L53.9077 10.3257L56.125 8.10841C56.4489 7.78587 56.8874 7.60482 57.3447 7.60482C57.8019 7.60482 58.24 7.78587 58.5644 8.10841L62.5326 12.0912V12.0908C62.8588 12.411 63.0421 12.8487 63.0421 13.3054C63.0421 13.7626 62.8588 14.2003 62.5326 14.5201L62.5348 14.5223Z" fill="#245D51"/>
</svg>
