<svg width="19" height="20" viewBox="0 0 19 20" fill="none" xmlns="http://www.w3.org/2000/svg">
<path fill-rule="evenodd" clip-rule="evenodd" d="M13.5024 0C16.7909 0 19 2.16273 19 5.38122V14.6188C19 17.8654 16.8589 19.9769 13.5453 19.997L5.49865 20C2.21013 20 0 17.8373 0 14.6188V5.38122C0 2.1336 2.1411 0.023104 5.45472 0.00401808L13.5013 0H13.5024ZM13.5024 1.50678L5.45995 1.5108C3.02494 1.52486 1.56895 2.97137 1.56895 5.38122V14.6188C1.56895 17.0447 3.03854 18.4932 5.49761 18.4932L13.5401 18.4902C15.9751 18.4761 17.431 17.0276 17.431 14.6188V5.38122C17.431 2.9553 15.9625 1.50678 13.5024 1.50678ZM13.3006 13.5346C13.7337 13.5346 14.0851 13.8721 14.0851 14.288C14.0851 14.7039 13.7337 15.0414 13.3006 15.0414H5.74874C5.31571 15.0414 4.96427 14.7039 4.96427 14.288C4.96427 13.8721 5.31571 13.5346 5.74874 13.5346H13.3006ZM13.3006 9.32918C13.7337 9.32918 14.0851 9.6667 14.0851 10.0826C14.0851 10.4984 13.7337 10.836 13.3006 10.836H5.74874C5.31571 10.836 4.96427 10.4984 4.96427 10.0826C4.96427 9.6667 5.31571 9.32918 5.74874 9.32918H13.3006ZM8.63007 5.1335C9.0631 5.1335 9.41455 5.47102 9.41455 5.88689C9.41455 6.30276 9.0631 6.64028 8.63007 6.64028H5.74843C5.3154 6.64028 4.96395 6.30276 4.96395 5.88689C4.96395 5.47102 5.3154 5.1335 5.74843 5.1335H8.63007Z" fill="#245D51"/>
</svg>
