<svg width="70" height="70" viewBox="0 0 70 70" fill="none" xmlns="http://www.w3.org/2000/svg">
<path fill-rule="evenodd" clip-rule="evenodd" d="M35.0004 15.4305C30.6905 15.4305 27.4395 11.8949 27.4395 7.20667C27.4395 5.0253 28.314 3.09723 29.9036 1.78187C31.2907 0.633599 33.1237 0 35.0717 0C38.7939 0 42.5612 2.47475 42.5612 7.20667C42.5612 11.8949 39.3103 15.4305 35.0002 15.4305H35.0004ZM35.0718 2.89083C32.7779 2.89083 30.3075 4.24329 30.3075 7.20837C30.3075 10.2989 32.2801 12.5429 35.0004 12.5429C37.7206 12.5429 39.6932 10.2989 39.6932 7.20837C39.6932 5.83819 39.2307 4.75302 38.3188 3.98548C37.4954 3.28932 36.3132 2.89088 35.0717 2.89088L35.0718 2.89083Z" fill="#245D51"/>
<path fill-rule="evenodd" clip-rule="evenodd" d="M45.36 69.999C45.104 69.999 44.848 69.9314 44.6184 69.7909L34.7774 63.8083L25.4104 69.7766C24.9182 70.0892 24.2876 70.0732 23.8124 69.7329C23.3373 69.3914 23.1137 68.7976 23.2472 68.2288L25.8548 56.9531L17.3271 49.8205C16.8783 49.447 16.7003 48.8355 16.8739 48.2776C17.048 47.7187 17.5397 47.3203 18.1198 47.2704L29.5704 46.2854L33.6673 35.9123C33.8826 35.3672 34.4028 35.008 34.9846 35.0014C35.5647 34.987 36.0947 35.345 36.3205 35.8851L40.7898 46.551L51.8498 47.2704C52.4293 47.3075 52.9314 47.6959 53.1154 48.2504C53.3022 48.8049 53.1341 49.4208 52.6957 49.8015L44.006 57.3818L46.745 68.1998C46.8883 68.767 46.6774 69.3669 46.2105 69.7149C45.9622 69.9019 45.6612 69.9988 45.3601 69.9988L45.36 69.999ZM34.7614 60.6645C35.0174 60.6645 35.2734 60.7336 35.503 60.8737L43.1067 65.4961L41.0131 57.2269C40.8797 56.6968 41.0538 56.1356 41.4636 55.7777L48.1785 49.9223L39.7245 49.3728C39.1817 49.3369 38.7066 48.9971 38.4956 48.4941L35.042 40.2525L31.9098 48.1797C31.7087 48.6872 31.2396 49.0391 30.6991 49.0856L21.8517 49.8482L28.37 55.2973C28.7881 55.6454 28.9743 56.2032 28.8512 56.7355L26.8358 65.4479L33.9951 60.8886C34.2285 60.7386 34.495 60.6645 34.7614 60.6645L34.7614 60.6645Z" fill="#245D51"/>
<path fill-rule="evenodd" clip-rule="evenodd" d="M22.4076 33.4813H47.5966C48.3893 33.4813 49.0309 32.8333 49.0309 32.0364V24.3948C49.0309 20.1582 45.6075 16.7095 41.4019 16.7095H28.6011C24.3961 16.7095 20.9727 20.1582 20.9727 24.3948V32.0364C20.9727 32.8344 21.6137 33.4813 22.4069 33.4813H22.4076ZM39.9156 30.592H30.0893V24.5723C30.0893 23.7738 29.4477 23.1275 28.6551 23.1275C27.8624 23.1275 27.2214 23.7738 27.2214 24.5723V30.592H23.8414V24.3947C23.8414 21.7506 25.9761 19.5986 28.6019 19.5986H41.4027C44.0268 19.5986 46.1637 21.7506 46.1637 24.3947V30.592H42.7837V24.5723C42.7837 23.7738 42.1426 23.1275 41.3494 23.1275C40.5568 23.1275 39.9158 23.7738 39.9158 24.5723L39.9156 30.592Z" fill="#245D51"/>
<path d="M6.85049 61.4492C6.5599 61.4492 6.26876 61.3606 6.01881 61.1835C5.54365 60.8416 5.32006 60.2483 5.45356 59.6778L7.62891 50.2719L0.518975 44.3263C0.0701798 43.9539 -0.108346 43.343 0.0657779 42.7835C0.239902 42.2239 0.73156 41.8256 1.31164 41.7758L10.8633 40.9551L14.2784 32.3057C14.4932 31.7623 15.0134 31.4026 15.5951 31.3965H15.61C16.1851 31.3965 16.7059 31.7429 16.9311 32.2797L20.6594 41.1776L25.9994 41.5245C26.7904 41.576 27.3886 42.2627 27.3392 43.0607C27.2881 43.8571 26.6036 44.4619 25.8153 44.4099L19.5898 44.0054C19.0471 43.9699 18.5719 43.6296 18.361 43.1266L15.649 36.6521L13.1984 42.856C12.9979 43.364 12.5288 43.7138 11.9883 43.7619L5.0399 44.3601L10.1382 48.6228C10.5562 48.9726 10.7424 49.5287 10.6199 50.0627L9.03845 56.9047L14.6388 53.3365C15.0974 53.0432 15.6814 53.0371 16.1467 53.3204L21.8168 56.7691C22.4946 57.1819 22.7116 58.0685 22.304 58.7519C21.8942 59.4342 21.0136 59.6533 20.3358 59.2422L15.4276 56.25L7.61852 61.2255C7.3834 61.3749 7.11699 61.449 6.85057 61.449L6.85049 61.4492Z" fill="#245D51"/>
<path d="M62.3855 61.2252C62.6189 61.3729 62.8853 61.4471 63.1518 61.4471C63.2891 61.4471 63.427 61.4283 63.5599 61.3879C63.7082 61.3425 63.8505 61.2733 63.9812 61.1765C64.4542 60.8378 64.6778 60.2429 64.5465 59.6707L62.3711 50.2654L69.4815 44.3193C69.9297 43.9468 70.1083 43.3359 69.9341 42.7764C69.76 42.2169 69.2684 41.819 68.6883 41.7687L59.1366 40.948L55.7215 32.2986C55.5067 31.7557 54.9865 31.396 54.4042 31.3894H54.3905C53.8148 31.3894 53.2924 31.7375 53.0688 32.2732L49.3405 41.1705L44.0005 41.5174C43.2095 41.5689 42.6097 42.2556 42.6608 43.0536C42.7118 43.85 43.3919 44.4565 44.1846 44.4033L50.4101 43.9983C50.9528 43.9628 51.428 43.6231 51.639 43.12L54.3515 36.6455L56.8015 42.8489C57.002 43.3586 57.4711 43.7066 58.0122 43.7553L64.9606 44.353L59.8617 48.6157C59.4437 48.9655 59.2575 49.5221 59.38 50.0556L60.9614 56.8976L55.3611 53.3299C54.9025 53.0366 54.3185 53.03 53.8532 53.3139L48.1837 56.762C47.5053 57.1748 47.2861 58.0613 47.6959 58.7453C48.1057 59.4271 48.9863 59.6479 49.6647 59.2351L54.5767 56.2496L62.3855 61.2252Z" fill="#245D51"/>
</svg>
