<svg width="20" height="18" viewBox="0 0 20 18" fill="none" xmlns="http://www.w3.org/2000/svg">
<path fill-rule="evenodd" clip-rule="evenodd" d="M16.2882 10.9902C18.2308 10.9902 19.8112 12.5626 19.8112 14.4951C19.8112 16.4275 18.2308 18 16.2882 18C14.3444 18 12.7629 16.4275 12.7629 14.4951C12.7629 12.5626 14.3444 10.9902 16.2882 10.9902ZM16.2882 12.6883C15.2806 12.6883 14.461 13.4989 14.461 14.4951C14.461 15.4925 15.2806 16.3019 16.2882 16.3019C17.2946 16.3019 18.1131 15.4925 18.1131 14.4951C18.1131 13.4989 17.2946 12.6883 16.2882 12.6883ZM8.01543 13.69C8.48411 13.69 8.86449 14.0703 8.86449 14.539C8.86449 15.0077 8.48411 15.3881 8.01543 15.3881H0.882226C0.413547 15.3881 0.0331698 15.0077 0.0331698 14.539C0.0331698 14.0703 0.413547 13.69 0.882226 13.69H8.01543ZM3.52415 0C5.46792 0 7.0483 1.57358 7.0483 3.50604C7.0483 5.43849 5.46792 7.00981 3.52415 7.00981C1.58151 7.00981 0 5.43849 0 3.50604C0 1.57358 1.58151 0 3.52415 0ZM3.52415 1.69811C2.51774 1.69811 1.69811 2.50868 1.69811 3.50604C1.69811 4.50226 2.51774 5.3117 3.52415 5.3117C4.5317 5.3117 5.35019 4.50226 5.35019 3.50604C5.35019 2.50868 4.5317 1.69811 3.52415 1.69811ZM18.3295 2.71743C18.7982 2.71743 19.1786 3.09781 19.1786 3.56649C19.1786 4.03517 18.7982 4.41555 18.3295 4.41555H11.1975C10.7288 4.41555 10.3484 4.03517 10.3484 3.56649C10.3484 3.09781 10.7288 2.71743 11.1975 2.71743H18.3295Z" fill="#245D51"/>
</svg>
