<svg width="30" height="30" viewBox="0 0 30 30" fill="none" xmlns="http://www.w3.org/2000/svg">
<path d="M29.4033 15.345C29.4033 14.3254 29.3206 13.3002 29.1441 12.2971H14.9961V18.0732H23.098C22.7618 19.9361 21.6816 21.5841 20.0998 22.6312V26.379H24.9334C27.7719 23.7666 29.4033 19.9086 29.4033 15.345Z" fill="#4285F4"/>
<path d="M14.9783 30C19.0237 30 22.4354 28.6717 24.921 26.3788L20.0875 22.631C18.7426 23.546 17.0065 24.0641 14.9838 24.0641C11.0706 24.0641 7.75265 21.424 6.56216 17.8746H1.57422V21.7381C4.12056 26.8034 9.30691 30 14.9783 30Z" fill="#34A853"/>
<path d="M6.57801 17.8745C5.94969 16.0117 5.94969 13.9944 6.57801 12.1315V8.26794H1.59559C-0.531863 12.5063 -0.531863 17.4998 1.59559 21.738L6.57801 17.8745Z" fill="#FBBC04"/>
<path d="M14.9783 5.93693C17.1167 5.90387 19.1836 6.70853 20.7323 8.18564L25.0147 3.90317C22.3031 1.35685 18.7041 -0.0430814 14.9783 0.0010108C9.30689 0.0010108 4.12056 3.1977 1.57422 8.26831L6.55664 12.1319C7.74161 8.57695 11.0651 5.93693 14.9783 5.93693Z" fill="#EA4335"/>
</svg>
