<svg width="114" height="80" viewBox="0 0 114 80" fill="none" xmlns="http://www.w3.org/2000/svg">
<path opacity="0.1" d="M112.276 64.3188L102.656 54.6978V24.4935C102.649 24.132 102.577 23.7759 102.443 23.4402C102.405 23.3434 102.361 23.2484 102.312 23.157C102.196 22.9243 102.05 22.7085 101.878 22.514C101.814 22.4403 101.759 22.3639 101.688 22.2973H101.688C101.445 22.0611 101.164 21.8675 100.855 21.7254L100.813 21.7068L100.798 21.7006L52.5563 0.259747C51.7731 -0.0865822 50.8806 -0.0865822 50.0974 0.259747L1.79919 21.7256C0.705116 22.2113 0 23.2965 0 24.4937C0 25.6908 0.705116 26.775 1.79919 27.2608L22.2909 36.3685V52.8949C22.2909 63.3437 35.0442 71.5279 51.3267 71.5279C67.608 71.5279 80.3647 63.3437 80.3647 52.8949L80.3656 36.3685L96.5981 29.1541V54.698L86.9771 64.319H86.978C85.7942 65.5018 85.7942 67.4201 86.978 68.6029L97.4863 79.1128H97.4854C98.6691 80.2957 100.587 80.2957 101.77 79.1128L112.279 68.6029H112.278C113.461 67.4201 113.461 65.5018 112.278 64.319L112.276 64.3188ZM74.3054 52.8959C74.3054 59.7133 63.783 65.4698 51.3282 65.4698C38.8725 65.4698 28.351 59.7126 28.351 52.8959L28.3501 39.0618L50.0965 48.7274H50.0974C50.8798 49.0773 51.774 49.0773 52.5563 48.7274L74.3054 39.0618V52.8959ZM51.3259 42.6451L10.4867 24.4944L51.3259 6.34269L92.1674 24.4944L51.3259 42.6451ZM99.6265 72.6858L93.4003 66.4596L99.6274 60.2344L105.854 66.4605L99.6265 72.6858Z" fill="#245D51"/>
</svg>
