<svg width="30" height="30" viewBox="0 0 30 30" fill="none" xmlns="http://www.w3.org/2000/svg">
<path fill-rule="evenodd" clip-rule="evenodd" d="M14.9992 6.61305C13.1521 6.61305 11.7588 5.09782 11.7588 3.08856C11.7588 2.1537 12.1336 1.32738 12.8149 0.763656C13.4093 0.271542 14.1949 0 15.0297 0C16.625 0 18.2395 1.06061 18.2395 3.08856C18.2395 5.09782 16.8463 6.61305 14.9991 6.61305H14.9992ZM15.0298 1.23892C14.0467 1.23892 12.988 1.81855 12.988 3.08929C12.988 4.41382 13.8333 5.37553 14.9992 5.37553C16.165 5.37553 17.0104 4.41382 17.0104 3.08929C17.0104 2.50208 16.8122 2.037 16.4214 1.70806C16.0685 1.4097 15.5618 1.23895 15.0298 1.23895L15.0298 1.23892Z" fill="white"/>
<path fill-rule="evenodd" clip-rule="evenodd" d="M19.4385 29.9996C19.3288 29.9996 19.2191 29.9707 19.1207 29.9104L14.9031 27.3465L10.8887 29.9043C10.6778 30.0383 10.4075 30.0314 10.2039 29.8855C10.0003 29.7392 9.90443 29.4847 9.96164 29.2409L11.0792 24.4085L7.42447 21.3517C7.23212 21.1916 7.15585 20.9295 7.23024 20.6905C7.30487 20.4509 7.51557 20.2802 7.76418 20.2588L12.6716 19.8367L14.4274 15.391C14.5197 15.1574 14.7426 15.0035 14.9919 15.0007C15.2405 14.9945 15.4677 15.1479 15.5645 15.3794L17.4799 19.9505L22.2199 20.2588C22.4682 20.2747 22.6834 20.4412 22.7623 20.6788C22.8423 20.9165 22.7703 21.1804 22.5824 21.3436L18.8582 24.5922L20.0321 29.2285C20.0935 29.4716 20.0031 29.7287 19.803 29.8778C19.6966 29.958 19.5676 29.9995 19.4386 29.9995L19.4385 29.9996ZM14.8963 25.9991C15.006 25.9991 15.1157 26.0288 15.2141 26.0888L18.4728 28.0698L17.5756 24.5259C17.5184 24.2987 17.593 24.0582 17.7687 23.9048L20.6465 21.3953L17.0233 21.1598C16.7907 21.1444 16.5871 20.9988 16.4967 20.7832L15.0165 17.2512L13.6742 20.6485C13.588 20.866 13.387 21.0168 13.1553 21.0367L9.36358 21.3636L12.1571 23.6989C12.3363 23.8481 12.4161 24.0871 12.3634 24.3153L11.4996 28.0492L14.5679 26.0951C14.6679 26.0309 14.7821 25.9991 14.8963 25.9991L14.8963 25.9991Z" fill="white"/>
<path fill-rule="evenodd" clip-rule="evenodd" d="M9.6018 14.3485H20.3971C20.7368 14.3485 21.0117 14.0708 21.0117 13.7293V10.4544C21.0117 8.63866 19.5446 7.16064 17.7422 7.16064H12.2561C10.454 7.16064 8.98682 8.63866 8.98682 10.4544V13.7293C8.98682 14.0713 9.26156 14.3485 9.60149 14.3485H9.6018ZM17.1052 13.1103H12.894V10.5304C12.894 10.1882 12.619 9.91122 12.2793 9.91122C11.9396 9.91122 11.6648 10.1882 11.6648 10.5304V13.1103H10.2163V10.4543C10.2163 9.32114 11.1312 8.39884 12.2565 8.39884H17.7425C18.8672 8.39884 19.7829 9.32114 19.7829 10.4543V13.1103H18.3344V10.5304C18.3344 10.1882 18.0596 9.91122 17.7197 9.91122C17.38 9.91122 17.1053 10.1882 17.1053 10.5304L17.1052 13.1103Z" fill="white"/>
<path d="M2.93592 26.3357C2.81138 26.3357 2.6866 26.2978 2.57948 26.2219C2.37584 26.0753 2.28002 25.8211 2.33723 25.5766L3.26953 21.5455L0.222417 18.9974C0.030077 18.8378 -0.0464338 18.576 0.0281904 18.3362C0.102815 18.0964 0.313525 17.9256 0.562132 17.9043L4.65568 17.5526L6.1193 13.8457C6.21135 13.6128 6.4343 13.4587 6.68361 13.4561H6.68997C6.93645 13.4561 7.15964 13.6045 7.25616 13.8346L8.85399 17.6479L11.1426 17.7966C11.4816 17.8187 11.7379 18.113 11.7168 18.455C11.6949 18.7963 11.4015 19.0555 11.0637 19.0332L8.39561 18.8598C8.16301 18.8447 7.95937 18.6988 7.86896 18.4832L6.70669 15.7084L5.65645 18.3673C5.57052 18.585 5.36947 18.7349 5.13781 18.7555L2.15995 19.0119L4.34492 20.8387C4.52408 20.9886 4.60389 21.227 4.55139 21.4558L3.87361 24.3881L6.27374 22.8589C6.47032 22.7332 6.72058 22.7306 6.92 22.852L9.35002 24.33C9.64053 24.5069 9.73352 24.8869 9.55884 25.1798C9.38321 25.4722 9.00583 25.5661 8.71532 25.3899L6.61183 24.1075L3.26507 26.2399C3.16431 26.3039 3.05013 26.3357 2.93595 26.3357L2.93592 26.3357Z" fill="white"/>
<path d="M26.7369 26.2389C26.837 26.3022 26.9512 26.334 27.0654 26.334C27.1242 26.334 27.1833 26.3259 27.2403 26.3086C27.3038 26.2892 27.3648 26.2595 27.4208 26.218C27.6236 26.0729 27.7194 25.8179 27.6631 25.5727L26.7308 21.5418L29.7781 18.9935C29.9702 18.8339 30.0467 18.5721 29.9721 18.3323C29.8975 18.0925 29.6868 17.922 29.4381 17.9004L25.3446 17.5487L23.881 13.8418C23.7889 13.6092 23.566 13.455 23.3164 13.4521H23.3106C23.0638 13.4521 22.8399 13.6013 22.7441 13.8309L21.1463 17.644L18.8577 17.7927C18.5187 17.8148 18.2616 18.1091 18.2835 18.4511C18.3054 18.7924 18.5969 19.0523 18.9366 19.0295L21.6047 18.8559C21.8373 18.8408 22.0409 18.6951 22.1313 18.4796L23.2938 15.7048L24.3438 18.3633C24.4298 18.5818 24.6308 18.731 24.8627 18.7518L27.8406 19.008L25.6554 20.8348C25.4762 20.9847 25.3964 21.2233 25.4489 21.4519L26.1267 24.3842L23.7265 22.8552C23.53 22.7295 23.2797 22.7267 23.0803 22.8483L20.6505 24.3261C20.3598 24.503 20.2658 24.883 20.4414 25.1761C20.6171 25.4683 20.9945 25.5629 21.2852 25.386L23.3904 24.1065L26.7369 26.2389Z" fill="white"/>
</svg>
