<svg width="30" height="30" viewBox="0 0 30 30" fill="none" xmlns="http://www.w3.org/2000/svg">
<path d="M14.9809 2.5C18.8169 2.5 21.9034 5.51848 21.9034 9.24501V11.1617C24.0563 11.8337 25.625 13.7827 25.625 16.1105V22.2816C25.625 25.1635 23.2358 27.5 20.2903 27.5H9.711C6.7642 27.5 4.375 25.1635 4.375 22.2816V16.1105C4.375 13.7827 5.94493 11.8337 8.09661 11.1617V9.24501C8.10931 5.51848 11.1958 2.5 14.9809 2.5ZM14.9936 16.7303C14.384 16.7303 13.8886 17.2148 13.8886 17.811V20.5687C13.8886 21.1773 14.384 21.6618 14.9936 21.6618C15.616 21.6618 16.1114 21.1773 16.1114 20.5687V17.811C16.1114 17.2148 15.616 16.7303 14.9936 16.7303ZM15.0064 4.6738C12.4279 4.6738 10.3321 6.71097 10.3194 9.22016V10.8921H19.6806V9.24501C19.6806 6.72339 17.5848 4.6738 15.0064 4.6738Z" fill="white"/>
</svg>
