<svg width="30" height="30" viewBox="0 0 30 30" fill="none" xmlns="http://www.w3.org/2000/svg">
<path d="M21.1737 3.75C22.85 3.75 24.4625 4.4125 25.6487 5.60125C26.8362 6.7875 27.5 8.3875 27.5 10.0625V19.9375C27.5 23.425 24.6625 26.25 21.1737 26.25H8.825C5.33625 26.25 2.5 23.425 2.5 19.9375V10.0625C2.5 6.575 5.32375 3.75 8.825 3.75H21.1737ZM22.5875 10.25C22.325 10.2362 22.075 10.325 21.8862 10.5L16.25 15C15.525 15.6012 14.4862 15.6012 13.75 15L8.125 10.5C7.73625 10.2125 7.19875 10.25 6.875 10.5875C6.5375 10.925 6.5 11.4625 6.78625 11.8375L6.95 12L12.6375 16.4375C13.3375 16.9875 14.1863 17.2875 15.075 17.2875C15.9613 17.2875 16.825 16.9875 17.5238 16.4375L23.1625 11.925L23.2625 11.825C23.5613 11.4625 23.5613 10.9375 23.2488 10.575C23.075 10.3888 22.8363 10.275 22.5875 10.25Z" fill="white"/>
</svg>
