<svg width="49" height="40" viewBox="0 0 49 40" fill="none" xmlns="http://www.w3.org/2000/svg">
<path d="M21.6836 2.11328e-05C24.0022 2.11328e-05 26.1646 1.67009 26.9452 4.34693C27.2318 5.46586 27.3484 6.58717 27.4602 7.66793L27.5651 8.65087C27.9659 11.9313 27.9659 28.0472 27.5651 31.3515L27.4602 32.3703C27.36 33.3985 27.2575 34.4626 26.9615 35.5982C26.1809 38.2679 24.1 40 21.7372 40C21.6626 40 21.5881 40 21.5042 39.9976C20.1993 39.9976 18.7802 39.196 17.9762 38.4969L10.1397 31.9623H6.11543C3.00925 31.9623 0.734962 29.7125 0.322514 26.2317C-0.15285 22.7508 -0.0596413 16.7792 0.322514 13.6157C0.772246 10.3209 3.15373 8.03773 6.11543 8.03773H10.1397L17.8271 1.59851C18.7545 0.792121 20.3903 -0.0047291 21.6836 2.11328e-05ZM40.6446 0.491274C41.572 -0.1672 42.8466 0.073763 43.4828 1.01614C46.9688 6.14795 48.8889 12.8925 48.8889 19.9998C48.8889 27.1118 46.9688 33.854 43.4828 38.9858C43.1029 39.5464 42.4761 39.8828 41.8073 39.8828C41.3926 39.8828 40.9918 39.754 40.6469 39.5107C39.7241 38.8498 39.4958 37.5495 40.1342 36.6048C43.1495 32.1625 44.811 26.2648 44.811 19.9998C44.811 13.7371 43.1495 7.83947 40.1342 3.39715C39.4958 2.45477 39.7241 1.15213 40.6446 0.491274ZM33.6185 7.24088C34.5483 6.58479 35.8182 6.82098 36.459 7.76575C38.71 11.082 39.952 15.4265 39.952 20C39.952 24.5735 38.71 28.918 36.459 32.2343C36.0769 32.7949 35.4524 33.1313 34.7836 33.1313C34.3688 33.1313 33.9657 33.0025 33.6208 32.7591C32.6981 32.0983 32.4697 30.7957 33.1105 29.8533C34.8931 27.2265 35.8741 23.7266 35.8741 20C35.8741 16.271 34.8931 12.7735 33.1105 10.1468C32.4697 9.20437 32.6981 7.90174 33.6185 7.24088Z" fill="#245D51"/>
</svg>
