<svg width="150" height="150" viewBox="0 0 150 150" fill="none" xmlns="http://www.w3.org/2000/svg">
<rect width="6.81818" height="6.81818" fill="#245D51"/>
<rect y="20.4545" width="6.81818" height="6.81818" fill="#245D51"/>
<rect y="40.9091" width="6.81818" height="6.81818" fill="#245D51"/>
<rect y="61.3636" width="6.81818" height="6.81818" fill="#245D51"/>
<rect y="81.8182" width="6.81818" height="6.81818" fill="#245D51"/>
<rect y="102.273" width="6.81818" height="6.81818" fill="#245D51"/>
<rect y="122.727" width="6.81818" height="6.81818" fill="#245D51"/>
<rect y="143.182" width="6.81818" height="6.81818" fill="#245D51"/>
<rect x="20.4546" width="6.81818" height="6.81818" fill="#245D51"/>
<rect x="20.4546" y="20.4545" width="6.81818" height="6.81818" fill="#245D51"/>
<rect x="20.4546" y="40.9091" width="6.81818" height="6.81818" fill="#245D51"/>
<rect x="20.4546" y="61.3636" width="6.81818" height="6.81818" fill="#245D51"/>
<rect x="20.4546" y="81.8182" width="6.81818" height="6.81818" fill="#245D51"/>
<rect x="20.4546" y="102.273" width="6.81818" height="6.81818" fill="#245D51"/>
<rect x="20.4546" y="122.727" width="6.81818" height="6.81818" fill="#245D51"/>
<rect x="20.4546" y="143.182" width="6.81818" height="6.81818" fill="#245D51"/>
<rect x="40.9092" width="6.81818" height="6.81818" fill="#245D51"/>
<rect x="40.9092" y="20.4545" width="6.81818" height="6.81818" fill="#245D51"/>
<rect x="40.9092" y="40.9091" width="6.81818" height="6.81818" fill="#245D51"/>
<rect x="40.9092" y="61.3636" width="6.81818" height="6.81818" fill="#245D51"/>
<rect x="40.9092" y="81.8182" width="6.81818" height="6.81818" fill="#245D51"/>
<rect x="40.9092" y="102.273" width="6.81818" height="6.81818" fill="#245D51"/>
<rect x="40.9092" y="122.727" width="6.81818" height="6.81818" fill="#245D51"/>
<rect x="40.9092" y="143.182" width="6.81818" height="6.81818" fill="#245D51"/>
<rect x="61.3638" width="6.81818" height="6.81818" fill="#245D51"/>
<rect x="61.3638" y="20.4545" width="6.81818" height="6.81818" fill="#245D51"/>
<rect x="61.3638" y="40.9091" width="6.81818" height="6.81818" fill="#245D51"/>
<rect x="61.3638" y="61.3636" width="6.81818" height="6.81818" fill="#245D51"/>
<rect x="61.3638" y="81.8182" width="6.81818" height="6.81818" fill="#245D51"/>
<rect x="61.3638" y="102.273" width="6.81818" height="6.81818" fill="#245D51"/>
<rect x="61.3638" y="122.727" width="6.81818" height="6.81818" fill="#245D51"/>
<rect x="61.3638" y="143.182" width="6.81818" height="6.81818" fill="#245D51"/>
<rect x="81.8184" width="6.81818" height="6.81818" fill="#245D51"/>
<rect x="81.8184" y="20.4545" width="6.81818" height="6.81818" fill="#245D51"/>
<rect x="81.8184" y="40.9091" width="6.81818" height="6.81818" fill="#245D51"/>
<rect x="81.8184" y="61.3636" width="6.81818" height="6.81818" fill="#245D51"/>
<rect x="81.8184" y="81.8182" width="6.81818" height="6.81818" fill="#245D51"/>
<rect x="81.8184" y="102.273" width="6.81818" height="6.81818" fill="#245D51"/>
<rect x="81.8184" y="122.727" width="6.81818" height="6.81818" fill="#245D51"/>
<rect x="81.8184" y="143.182" width="6.81818" height="6.81818" fill="#245D51"/>
<rect x="102.272" width="6.81818" height="6.81818" fill="#245D51"/>
<rect x="102.272" y="20.4545" width="6.81818" height="6.81818" fill="#245D51"/>
<rect x="102.272" y="40.9091" width="6.81818" height="6.81818" fill="#245D51"/>
<rect x="102.272" y="61.3636" width="6.81818" height="6.81818" fill="#245D51"/>
<rect x="102.272" y="81.8182" width="6.81818" height="6.81818" fill="#245D51"/>
<rect x="102.272" y="102.273" width="6.81818" height="6.81818" fill="#245D51"/>
<rect x="102.272" y="122.727" width="6.81818" height="6.81818" fill="#245D51"/>
<rect x="102.272" y="143.182" width="6.81818" height="6.81818" fill="#245D51"/>
<rect x="122.728" width="6.81818" height="6.81818" fill="#245D51"/>
<rect x="122.728" y="20.4545" width="6.81818" height="6.81818" fill="#245D51"/>
<rect x="122.728" y="40.9091" width="6.81818" height="6.81818" fill="#245D51"/>
<rect x="122.728" y="61.3636" width="6.81818" height="6.81818" fill="#245D51"/>
<rect x="122.728" y="81.8182" width="6.81818" height="6.81818" fill="#245D51"/>
<rect x="122.728" y="102.273" width="6.81818" height="6.81818" fill="#245D51"/>
<rect x="122.728" y="122.727" width="6.81818" height="6.81818" fill="#245D51"/>
<rect x="122.728" y="143.182" width="6.81818" height="6.81818" fill="#245D51"/>
<rect x="143.182" width="6.81818" height="6.81818" fill="#245D51"/>
<rect x="143.182" y="20.4545" width="6.81818" height="6.81818" fill="#245D51"/>
<rect x="143.182" y="40.9091" width="6.81818" height="6.81818" fill="#245D51"/>
<rect x="143.182" y="61.3636" width="6.81818" height="6.81818" fill="#245D51"/>
<rect x="143.182" y="81.8182" width="6.81818" height="6.81818" fill="#245D51"/>
<rect x="143.182" y="102.273" width="6.81818" height="6.81818" fill="#245D51"/>
<rect x="143.182" y="122.727" width="6.81818" height="6.81818" fill="#245D51"/>
<rect x="143.182" y="143.182" width="6.81818" height="6.81818" fill="#245D51"/>
</svg>
