<svg width="112" height="80" viewBox="0 0 112 80" fill="none" xmlns="http://www.w3.org/2000/svg">
<g opacity="0.1">
<path d="M2.39767 51.4773C0.093671 54.0213 1.24572 58.3893 5.32572 62.2293C11.7579 68.3733 15.9819 67.4613 17.1339 59.6373C17.9019 54.5013 5.75767 47.7332 2.39767 51.4773ZM12.5259 61.3648C11.6139 62.0848 10.2699 61.9888 9.45386 61.1248C9.35786 60.9808 4.41386 55.9893 6.66986 53.7813C7.62986 52.8213 8.06186 52.8213 9.35786 53.8773C12.8619 56.7093 14.1579 58.3408 12.5259 61.3648Z" fill="#245D51"/>
<path d="M64.0301 12.4053C68.2541 15.9573 78.3821 10.6293 78.3821 4.86927C78.3821 1.74927 72.0941 -0.36273 68.7821 1.70127C62.9741 5.25327 60.9581 9.81327 64.0301 12.4053ZM70.5101 4.62927C73.0541 2.37327 74.0621 2.61327 74.0621 4.24527C74.0621 5.78127 71.1341 9.04527 68.6861 10.2933C65.5661 11.9253 66.5261 8.13327 70.5101 4.62927Z" fill="#245D51"/>
<path d="M4.51006 36.2133C8.68596 37.3653 16.654 29.7808 14.254 27.0448C11.47 23.9248 6.90996 23.1093 4.89396 25.3173C-0.770035 31.4613 -0.865937 34.7253 4.51006 36.2133ZM4.94201 30.7413C7.48601 26.6613 9.11796 26.2288 10.51 27.2848C11.278 27.8608 10.51 29.4933 8.20596 31.6533C7.00592 32.7573 5.18201 34.5813 4.22201 33.8613C3.21401 33.1893 4.03001 32.1813 4.94201 30.7413Z" fill="#245D51"/>
<path d="M83.038 53.2533C77.182 57.2373 76.414 66.9333 81.982 66.9333C85.822 66.9333 93.262 59.4933 93.262 55.6533C93.262 52.1493 86.878 50.6133 83.038 53.2533ZM81.694 64.5333C81.214 64.4853 82.6539 60.2133 84.0459 57.4773C85.5819 54.5013 88.51 52.8688 89.182 54.6448C89.758 55.9408 84.862 64.7253 81.694 64.5333Z" fill="#245D51"/>
<path d="M62.1099 32.8052C58.1739 36.7412 65.9019 49.1737 72.2859 49.1737C76.5579 49.1737 79.4379 40.1492 76.4619 36.0212C73.5339 31.9892 64.8459 30.0212 62.1099 32.8052ZM71.1819 45.0937C70.0299 45.8137 65.4219 38.7097 65.4219 36.2137C65.4219 33.5257 68.7819 32.9972 71.0859 35.3972C73.6299 38.0372 73.6779 43.5097 71.1819 45.0937Z" fill="#245D51"/>
<path d="M103.917 23.1573C102.957 22.8693 101.422 22.1493 100.51 21.5253C98.254 19.9893 95.518 19.9413 94.51 21.4773C91.198 26.6613 93.358 32.1333 100.51 36.7413C106.51 40.5813 109.774 39.4298 111.07 33.0938C111.982 28.4378 109.245 24.6933 103.917 23.1573ZM104.59 33.2373C104.302 34.0053 103.39 34.1978 102.766 33.6698L101.277 32.2773C97.1015 28.3413 96.094 22.7738 99.502 22.7738C100.702 22.7738 100.894 22.9173 100.414 23.4453C99.982 23.9733 100.366 24.5498 102.526 26.3738C105.502 28.8218 105.79 29.9253 104.59 33.2373Z" fill="#245D51"/>
<path d="M50.8776 59.7813C48.9576 59.0613 47.6141 59.1573 46.4141 60.1173C40.9901 64.5333 41.3741 78.5973 46.8941 79.0293C55.4861 79.6533 58.9416 62.8053 50.8776 59.7813ZM47.4701 74.1333C46.7501 73.4133 47.0381 69.3333 48.0941 66.2613C49.6301 61.8453 50.7816 61.0293 51.5976 63.8613C52.3176 66.4533 48.7661 75.3813 47.4701 74.1333Z" fill="#245D51"/>
<path d="M37.8219 13.6533C38.8779 10.2453 30.1419 6.02129 27.5979 8.75729C24.7659 11.8293 21.9339 18.5493 22.5579 20.9013C23.9019 26.0373 35.6619 20.4693 37.8219 13.6533ZM26.2059 20.6613C24.7179 19.6053 28.2219 14.9493 29.9019 12.3573C31.5819 9.76529 33.2619 9.86129 33.2619 12.5013C33.2619 13.3173 27.6939 21.6693 26.2059 20.6613Z" fill="#245D51"/>
<path d="M32.5421 35.4452C27.9341 37.5092 24.0461 46.7252 26.6861 49.3652C30.4781 53.1572 37.9661 49.8932 41.7101 42.8372C43.7261 38.9972 36.8621 33.4772 32.5421 35.4452ZM34.4141 45.5737C30.3821 49.4137 28.7021 46.9172 30.4781 43.5572C32.9261 38.9492 37.2461 36.5012 37.7261 39.7172C37.9181 40.9652 36.8141 43.2697 34.4141 45.5737Z" fill="#245D51"/>
</g>
</svg>
