<svg width="181" height="50" viewBox="0 0 181 50" fill="none" xmlns="http://www.w3.org/2000/svg">
<path d="M80.2688 36V15H93.4388V18.66H83.9288V22.92H91.4738V26.58H83.9288V32.34H93.4388V36H80.2688ZM107.517 13.5H111.177V36H107.517V34.125C107.037 34.795 106.432 35.34 105.702 35.76C104.972 36.18 104.127 36.39 103.167 36.39C102.077 36.39 101.057 36.185 100.107 35.775C99.157 35.365 98.317 34.8 97.587 34.08C96.867 33.35 96.302 32.51 95.892 31.56C95.482 30.61 95.277 29.59 95.277 28.5C95.277 27.41 95.482 26.39 95.892 25.44C96.302 24.49 96.867 23.655 97.587 22.935C98.317 22.205 99.157 21.635 100.107 21.225C101.057 20.815 102.077 20.61 103.167 20.61C104.127 20.61 104.972 20.82 105.702 21.24C106.432 21.65 107.037 22.195 107.517 22.875V13.5ZM103.212 32.865C103.992 32.865 104.682 32.67 105.282 32.28C105.882 31.89 106.352 31.365 106.692 30.705C107.032 30.035 107.202 29.3 107.202 28.5C107.202 27.69 107.032 26.955 106.692 26.295C106.352 25.625 105.877 25.095 105.267 24.705C104.667 24.315 103.982 24.12 103.212 24.12C102.442 24.12 101.737 24.32 101.097 24.72C100.467 25.11 99.962 25.635 99.582 26.295C99.212 26.955 99.027 27.69 99.027 28.5C99.027 29.31 99.217 30.045 99.597 30.705C99.977 31.365 100.482 31.89 101.112 32.28C101.752 32.67 102.452 32.865 103.212 32.865ZM114.18 30.45V21H117.84V29.49C117.84 30.08 117.985 30.62 118.275 31.11C118.565 31.59 118.95 31.975 119.43 32.265C119.92 32.545 120.455 32.685 121.035 32.685C121.635 32.685 122.175 32.545 122.655 32.265C123.135 31.975 123.52 31.59 123.81 31.11C124.1 30.62 124.245 30.08 124.245 29.49V21H127.905L127.92 36H124.26L124.245 34.635C123.725 35.175 123.11 35.605 122.4 35.925C121.69 36.235 120.93 36.39 120.12 36.39C119.03 36.39 118.035 36.125 117.135 35.595C116.235 35.055 115.515 34.34 114.975 33.45C114.445 32.55 114.18 31.55 114.18 30.45ZM139.989 31.485L143.289 33.27C142.599 34.21 141.734 34.965 140.694 35.535C139.654 36.105 138.519 36.39 137.289 36.39C135.909 36.39 134.649 36.035 133.509 35.325C132.379 34.615 131.474 33.665 130.794 32.475C130.124 31.275 129.789 29.95 129.789 28.5C129.789 27.4 129.984 26.375 130.374 25.425C130.764 24.465 131.299 23.625 131.979 22.905C132.669 22.175 133.469 21.605 134.379 21.195C135.289 20.785 136.259 20.58 137.289 20.58C138.519 20.58 139.654 20.865 140.694 21.435C141.734 22.005 142.599 22.77 143.289 23.73L139.989 25.5C139.639 25.1 139.224 24.79 138.744 24.57C138.274 24.35 137.789 24.24 137.289 24.24C136.569 24.24 135.919 24.44 135.339 24.84C134.759 25.23 134.299 25.75 133.959 26.4C133.619 27.04 133.449 27.74 133.449 28.5C133.449 29.25 133.619 29.95 133.959 30.6C134.299 31.24 134.759 31.755 135.339 32.145C135.919 32.535 136.569 32.73 137.289 32.73C137.809 32.73 138.304 32.62 138.774 32.4C139.244 32.17 139.649 31.865 139.989 31.485ZM156.823 21H160.483V36H156.823L156.658 34.14C156.248 34.81 155.703 35.355 155.023 35.775C154.353 36.185 153.558 36.39 152.638 36.39C151.528 36.39 150.488 36.18 149.518 35.76C148.548 35.34 147.693 34.76 146.953 34.02C146.223 33.28 145.648 32.425 145.228 31.455C144.818 30.485 144.613 29.445 144.613 28.335C144.613 27.265 144.808 26.26 145.198 25.32C145.598 24.38 146.153 23.555 146.863 22.845C147.573 22.135 148.393 21.58 149.323 21.18C150.253 20.78 151.253 20.58 152.323 20.58C153.313 20.58 154.198 20.8 154.978 21.24C155.768 21.68 156.438 22.24 156.988 22.92L156.823 21ZM152.548 32.865C153.328 32.865 154.018 32.67 154.618 32.28C155.218 31.89 155.688 31.365 156.028 30.705C156.368 30.035 156.538 29.3 156.538 28.5C156.538 27.69 156.368 26.955 156.028 26.295C155.688 25.625 155.213 25.095 154.603 24.705C154.003 24.315 153.318 24.12 152.548 24.12C151.778 24.12 151.073 24.32 150.433 24.72C149.803 25.11 149.298 25.635 148.918 26.295C148.548 26.955 148.363 27.69 148.363 28.5C148.363 29.31 148.553 30.045 148.933 30.705C149.313 31.365 149.818 31.89 150.448 32.28C151.088 32.67 151.788 32.865 152.548 32.865ZM174.519 13.5H178.179V36H174.519V34.125C174.039 34.795 173.434 35.34 172.704 35.76C171.974 36.18 171.129 36.39 170.169 36.39C169.079 36.39 168.059 36.185 167.109 35.775C166.159 35.365 165.319 34.8 164.589 34.08C163.869 33.35 163.304 32.51 162.894 31.56C162.484 30.61 162.279 29.59 162.279 28.5C162.279 27.41 162.484 26.39 162.894 25.44C163.304 24.49 163.869 23.655 164.589 22.935C165.319 22.205 166.159 21.635 167.109 21.225C168.059 20.815 169.079 20.61 170.169 20.61C171.129 20.61 171.974 20.82 172.704 21.24C173.434 21.65 174.039 22.195 174.519 22.875V13.5ZM170.214 32.865C170.994 32.865 171.684 32.67 172.284 32.28C172.884 31.89 173.354 31.365 173.694 30.705C174.034 30.035 174.204 29.3 174.204 28.5C174.204 27.69 174.034 26.955 173.694 26.295C173.354 25.625 172.879 25.095 172.269 24.705C171.669 24.315 170.984 24.12 170.214 24.12C169.444 24.12 168.739 24.32 168.099 24.72C167.469 25.11 166.964 25.635 166.584 26.295C166.214 26.955 166.029 27.69 166.029 28.5C166.029 29.31 166.219 30.045 166.599 30.705C166.979 31.365 167.484 31.89 168.114 32.28C168.754 32.67 169.454 32.865 170.214 32.865Z" fill="white"/>
<path d="M31.5405 26.6525L45.018 43.1951C45.018 43.1951 25.2072 37.8888 12.9791 50.0005C3.43583 37.6367 0 31.8594 0 31.8594C0 31.8594 10.3075 19.2568 31.5405 26.6525Z" fill="#D9D9D9"/>
<path d="M31.5405 26.6525L45.018 43.1951C45.018 43.1951 25.2072 37.8888 12.9791 50.0005C3.43583 37.6367 0 31.8594 0 31.8594C0 31.8594 10.3075 19.2568 31.5405 26.6525Z" fill="#FF4E59"/>
<path d="M34.2656 25.4581L47.3643 41.8084C47.3643 41.8084 52.9666 28.5425 73.4686 29.2655C60.8418 15.8205 56.8544 11.5488 56.8544 11.5488C56.8544 11.5488 36.7711 11.7942 34.2656 25.4581Z" fill="white"/>
<path d="M30.077 23.2362C30.077 23.2362 11.6884 16.9149 1.85938 26.6123C4.77684 19.7273 8.89718 17.1272 13.9811 15.469C19.0651 13.8107 19.9623 12.8158 19.2246 7.50941C19.0294 5.65502 18.1149 3.9505 16.6767 2.76049C15.2385 1.57047 13.3908 0.989465 11.5289 1.14176C16.8654 -2.24105 31.147 3.85465 30.077 23.2362Z" fill="white"/>
<path d="M13.5234 6.39551C14.2338 6.3942 14.9285 6.60332 15.5197 6.99639C16.1109 7.38946 16.5719 7.94879 16.8443 8.60355C17.1168 9.25831 17.1884 9.97904 17.0501 10.6745C16.9119 11.3699 16.57 12.0087 16.0677 12.51C15.5654 13.0113 14.9253 13.3526 14.2286 13.4906C13.5318 13.6286 12.8097 13.5571 12.1537 13.2852C11.4977 13.0133 10.9373 12.5532 10.5434 11.9631C10.1496 11.3731 9.9401 10.6797 9.94141 9.97068C9.94141 9.02249 10.3188 8.11313 10.9906 7.44266C11.6623 6.77218 12.5734 6.39551 13.5234 6.39551Z" fill="white"/>
<path d="M31.4955 22.3408C31.4955 22.3408 32.4924 3.93434 21.4805 0.511735C29.7079 -1.59091 34.1073 3.23788 35.9615 6.84621C37.8156 10.4545 40.3676 9.93717 44.6009 8.1728C48.8342 6.40843 52.6555 6.84621 54.9815 10.2489C47.3522 9.35347 37.6827 12.6235 31.4955 22.3408Z" fill="#D9D9D9"/>
<path d="M31.4955 22.3408C31.4955 22.3408 32.4924 3.93434 21.4805 0.511735C29.7079 -1.59091 34.1073 3.23788 35.9615 6.84621C37.8156 10.4545 40.3676 9.93717 44.6009 8.1728C48.8342 6.40843 52.6555 6.84621 54.9815 10.2489C47.3522 9.35347 37.6827 12.6235 31.4955 22.3408Z" fill="#FF4E59"/>
<path d="M40.2004 7.34312C42.175 7.34312 43.7758 5.74543 43.7758 3.77459C43.7758 1.80374 42.175 0.206055 40.2004 0.206055C38.2258 0.206055 36.625 1.80374 36.625 3.77459C36.625 5.74543 38.2258 7.34312 40.2004 7.34312Z" fill="white"/>
</svg>
